<svg width="150" height="59" viewBox="0 0 150 59" fill="none" xmlns="http://www.w3.org/2000/svg">
<g clip-path="url(#clip0)">
<path d="M65.4209 7.492C64.4824 7.492 63.765 7.84261 63.2687 8.54382C62.7725 9.24503 62.5244 10.2052 62.5244 11.4242C62.5244 12.654 62.7509 13.6087 63.204 14.2884C63.6679 14.9572 64.4068 15.2916 65.4209 15.2916C65.8956 15.2916 66.3648 15.2377 66.8287 15.1298C67.3034 15.0219 67.8158 14.8709 68.366 14.6767V16.7318C67.859 16.9368 67.3573 17.0878 66.8611 17.1849C66.3648 17.282 65.8093 17.3305 65.1944 17.3305C64.0077 17.3305 63.026 17.0878 62.2493 16.6024C61.4833 16.1061 60.917 15.4157 60.5502 14.5311C60.1834 13.6357 60 12.5947 60 11.408C60 10.2429 60.2104 9.21267 60.6311 8.31727C61.0518 7.42188 61.6613 6.72067 62.4596 6.21364C63.2687 5.70661 64.2558 5.45309 65.4209 5.45309C65.9927 5.45309 66.5644 5.52861 67.1362 5.67964C67.7187 5.81988 68.2743 6.01406 68.8029 6.26218L68.01 8.25255C67.5785 8.04758 67.1416 7.86958 66.6993 7.71855C66.2678 7.56751 65.8416 7.492 65.4209 7.492Z" fill="white"/>
<path d="M78.6531 8.33346V17.1687H76.242V10.1458H73.038V17.1687H70.6269V8.33346H78.6531Z" fill="white"/>
<path d="M84.8077 8.15545C85.9944 8.15545 86.9006 8.41436 87.5263 8.93218C88.1628 9.43921 88.481 10.2213 88.481 11.2785V17.1687H86.7981L86.3288 15.9713H86.2641C85.8865 16.4459 85.4874 16.7912 85.0666 17.0069C84.6459 17.2227 84.0688 17.3305 83.3352 17.3305C82.5477 17.3305 81.895 17.104 81.3772 16.6509C80.8594 16.187 80.6005 15.4804 80.6005 14.5311C80.6005 13.5925 80.9295 12.9021 81.5876 12.4598C82.2456 12.0067 83.2327 11.7586 84.5488 11.7155L86.0861 11.6669V11.2785C86.0861 10.8147 85.962 10.4748 85.7139 10.2591C85.4766 10.0433 85.1422 9.93545 84.7106 9.93545C84.2791 9.93545 83.8584 10.0002 83.4485 10.1296C83.0385 10.2483 82.6286 10.3993 82.2186 10.5827L81.4257 8.94836C81.9004 8.70024 82.4236 8.50606 82.9954 8.36582C83.5779 8.22558 84.182 8.15545 84.8077 8.15545ZM86.0861 13.0747L85.1476 13.1071C84.3708 13.1287 83.8314 13.2689 83.5294 13.5278C83.2273 13.7867 83.0763 14.1265 83.0763 14.5473C83.0763 14.9141 83.1842 15.1784 83.3999 15.3402C83.6157 15.4912 83.8962 15.5667 84.2414 15.5667C84.7592 15.5667 85.1961 15.4157 85.5521 15.1136C85.9081 14.8008 86.0861 14.3639 86.0861 13.8029V13.0747Z" fill="white"/>
<path d="M94.5414 17.3305C93.2252 17.3305 92.2058 16.9692 91.483 16.2464C90.771 15.5128 90.415 14.3639 90.415 12.7996C90.415 11.7208 90.5984 10.8416 90.9652 10.162C91.332 9.48236 91.839 8.98073 92.4863 8.65709C93.1443 8.33345 93.8995 8.17164 94.7517 8.17164C95.3558 8.17164 95.8791 8.23097 96.3214 8.34964C96.7744 8.4683 97.1682 8.60855 97.5026 8.77036L96.7906 10.6313C96.4131 10.4802 96.0571 10.3562 95.7226 10.2591C95.399 10.162 95.0754 10.1135 94.7517 10.1135C93.5003 10.1135 92.8746 11.0035 92.8746 12.7835C92.8746 13.6681 93.0364 14.3207 93.3601 14.7415C93.6945 15.1622 94.1584 15.3725 94.7517 15.3725C95.2588 15.3725 95.7064 15.3078 96.0948 15.1784C96.4832 15.0381 96.8607 14.8493 97.2275 14.612V16.6671C96.8607 16.9044 96.4724 17.0716 96.0624 17.1687C95.6633 17.2766 95.1563 17.3305 94.5414 17.3305Z" fill="white"/>
<path d="M102.902 8.17164C104.121 8.17164 105.087 8.52224 105.799 9.22345C106.511 9.91388 106.867 10.901 106.867 12.1847V13.3498H101.171C101.192 14.0295 101.392 14.5635 101.769 14.9518C102.158 15.3402 102.692 15.5344 103.371 15.5344C103.943 15.5344 104.461 15.4804 104.925 15.3725C105.389 15.2539 105.869 15.0759 106.365 14.8385V16.6995C105.933 16.9152 105.475 17.0716 104.99 17.1687C104.515 17.2766 103.938 17.3305 103.258 17.3305C102.373 17.3305 101.591 17.1687 100.912 16.8451C100.232 16.5107 99.698 16.009 99.3097 15.3402C98.9213 14.6713 98.7271 13.8299 98.7271 12.8158C98.7271 11.7802 98.8997 10.9225 99.245 10.2429C99.601 9.55248 100.092 9.03467 100.717 8.68945C101.343 8.34424 102.071 8.17164 102.902 8.17164ZM102.918 9.88691C102.454 9.88691 102.066 10.0379 101.753 10.34C101.451 10.6421 101.273 11.1113 101.219 11.7478H104.601C104.59 11.2084 104.45 10.7661 104.18 10.4209C103.911 10.0649 103.49 9.88691 102.918 9.88691ZM100.07 6.068C100.07 5.69042 100.178 5.42073 100.394 5.25891C100.61 5.0863 100.869 5 101.171 5C101.473 5 101.732 5.0863 101.947 5.25891C102.174 5.42073 102.287 5.69042 102.287 6.068C102.287 6.424 102.174 6.6883 101.947 6.86091C101.732 7.03351 101.473 7.11982 101.171 7.11982C100.869 7.11982 100.61 7.03351 100.394 6.86091C100.178 6.6883 100.07 6.424 100.07 6.068ZM103.258 6.068C103.258 5.69042 103.366 5.42073 103.582 5.25891C103.797 5.0863 104.062 5 104.375 5C104.677 5 104.936 5.0863 105.151 5.25891C105.378 5.42073 105.491 5.69042 105.491 6.068C105.491 6.424 105.378 6.6883 105.151 6.86091C104.936 7.03351 104.677 7.11982 104.375 7.11982C104.062 7.11982 103.797 7.03351 103.582 6.86091C103.366 6.6883 103.258 6.424 103.258 6.068Z" fill="white"/>
<path d="M119.955 8.33346V17.1687H117.706V12.832C117.706 12.4005 117.711 11.9798 117.722 11.5698C117.743 11.1599 117.77 10.7823 117.803 10.4371H117.754L115.311 17.1687H113.498L111.022 10.4209H110.958C111.001 10.7769 111.028 11.1599 111.039 11.5698C111.06 11.969 111.071 12.4113 111.071 12.8967V17.1687H108.822V8.33346H112.236L114.437 14.3207L116.67 8.33346H119.955Z" fill="white"/>
<path d="M64.2073 24.6149C65.696 24.6149 66.7802 24.9385 67.4598 25.5858C68.1502 26.2223 68.4955 27.1015 68.4955 28.2235C68.4955 28.8923 68.3552 29.5234 68.0747 30.1167C67.7942 30.6993 67.325 31.1685 66.6669 31.5245C66.0196 31.8805 65.135 32.0585 64.0131 32.0585H62.9613V36.1687H60.5178V24.6149H64.2073ZM64.0778 26.6215H62.9613V30.052H63.7704C64.4608 30.052 65.0056 29.9172 65.4047 29.6475C65.8147 29.367 66.0196 28.9193 66.0196 28.3044C66.0196 27.1824 65.3724 26.6215 64.0778 26.6215Z" fill="white"/>
<path d="M69.2225 27.3335H71.8601L73.5269 32.3013C73.6132 32.5386 73.6779 32.7867 73.721 33.0456C73.7642 33.2938 73.7966 33.5581 73.8181 33.8385H73.8667C73.899 33.5581 73.9422 33.2938 73.9961 33.0456C74.0609 32.7867 74.131 32.5386 74.2065 32.3013L75.8409 27.3335H78.43L74.692 37.3015C74.3575 38.2184 73.8667 38.9035 73.2194 39.3565C72.5829 39.8204 71.844 40.0524 71.0025 40.0524C70.7328 40.0524 70.4955 40.0362 70.2905 40.0038C70.0963 39.9822 69.9237 39.9553 69.7727 39.9229V38.0135C69.8913 38.035 70.0316 38.0566 70.1934 38.0782C70.366 38.0998 70.544 38.1105 70.7274 38.1105C71.2344 38.1105 71.6336 37.9541 71.9249 37.6413C72.2269 37.3392 72.4481 36.9724 72.5883 36.5409L72.734 36.104L69.2225 27.3335Z" fill="white"/>
<path d="M83.2899 36.3305C81.9738 36.3305 80.9544 35.9692 80.2316 35.2464C79.5196 34.5128 79.1636 33.3639 79.1636 31.7996C79.1636 30.7208 79.347 29.8416 79.7138 29.162C80.0805 28.4824 80.5876 27.9807 81.2348 27.6571C81.8929 27.3335 82.6481 27.1716 83.5003 27.1716C84.1044 27.1716 84.6276 27.231 85.0699 27.3496C85.523 27.4683 85.9168 27.6085 86.2512 27.7704L85.5392 29.6313C85.1616 29.4802 84.8056 29.3562 84.4712 29.2591C84.1476 29.162 83.8239 29.1135 83.5003 29.1135C82.2489 29.1135 81.6232 30.0035 81.6232 31.7835C81.6232 32.6681 81.785 33.3207 82.1087 33.7415C82.4431 34.1622 82.907 34.3725 83.5003 34.3725C84.0073 34.3725 84.455 34.3078 84.8434 34.1784C85.2318 34.0381 85.6093 33.8493 85.9761 33.612V35.6671C85.6093 35.9044 85.221 36.0716 84.811 36.1687C84.4119 36.2766 83.9048 36.3305 83.2899 36.3305Z" fill="white"/>
<path d="M91.6021 36.3305C90.286 36.3305 89.2665 35.9692 88.5437 35.2464C87.8317 34.5128 87.4757 33.3639 87.4757 31.7996C87.4757 30.7208 87.6591 29.8416 88.0259 29.162C88.3927 28.4824 88.8997 27.9807 89.547 27.6571C90.2051 27.3335 90.9602 27.1716 91.8124 27.1716C92.4166 27.1716 92.9398 27.231 93.3821 27.3496C93.8352 27.4683 94.2289 27.6085 94.5634 27.7704L93.8514 29.6313C93.4738 29.4802 93.1178 29.3562 92.7834 29.2591C92.4597 29.162 92.1361 29.1135 91.8124 29.1135C90.5611 29.1135 89.9354 30.0035 89.9354 31.7835C89.9354 32.6681 90.0972 33.3207 90.4208 33.7415C90.7552 34.1622 91.2191 34.3725 91.8124 34.3725C92.3195 34.3725 92.7672 34.3078 93.1555 34.1784C93.5439 34.0381 93.9215 33.8493 94.2883 33.612V35.6671C93.9215 35.9044 93.5331 36.0716 93.1232 36.1687C92.724 36.2766 92.217 36.3305 91.6021 36.3305Z" fill="white"/>
<path d="M102.115 27.3335H104.769L101.273 31.5731L105.076 36.1687H102.341L98.733 31.6864V36.1687H96.3219V27.3335H98.733V31.6216L102.115 27.3335Z" fill="white"/>
<path d="M108.671 27.3335V30.8287C108.671 31.0121 108.66 31.2387 108.639 31.5084C108.628 31.7781 108.612 32.0532 108.59 32.3336C108.579 32.6141 108.563 32.8622 108.541 33.078C108.52 33.2938 108.504 33.4448 108.493 33.5311L112.571 27.3335H115.467V36.1687H113.137V32.6411C113.137 32.3498 113.148 32.0316 113.169 31.6864C113.191 31.3304 113.213 31.0013 113.234 30.6993C113.266 30.3864 113.288 30.1491 113.299 29.9873L109.237 36.1687H106.341V27.3335H108.671Z" fill="white"/>
<path d="M119.8 31.654L116.952 27.3335H119.686L121.402 30.1491L123.133 27.3335H125.868L122.987 31.654L125.997 36.1687H123.262L121.402 33.1427L119.541 36.1687H116.806L119.8 31.654Z" fill="white"/>
<path d="M71.0036 49.3756C71.0036 50.5731 70.8041 51.6195 70.4049 52.5149C70.0165 53.3995 69.4178 54.0899 68.6087 54.5862C67.7996 55.0824 66.764 55.3305 65.5018 55.3305C64.2504 55.3305 63.2148 55.0824 62.3949 54.5862C61.5858 54.0899 60.9817 53.3941 60.5825 52.4987C60.1942 51.6033 60 50.5569 60 49.3595C60 48.162 60.1942 47.121 60.5825 46.2364C60.9817 45.3518 61.5858 44.6667 62.3949 44.1813C63.2148 43.685 64.2558 43.4369 65.518 43.4369C66.7694 43.4369 67.7996 43.685 68.6087 44.1813C69.4178 44.6667 70.0165 45.3572 70.4049 46.2525C70.8041 47.1372 71.0036 48.1782 71.0036 49.3756ZM62.5729 49.3756C62.5729 50.5839 62.8048 51.5386 63.2687 52.2398C63.7326 52.9302 64.477 53.2755 65.5018 53.2755C66.5482 53.2755 67.298 52.9302 67.7511 52.2398C68.2042 51.5386 68.4307 50.5839 68.4307 49.3756C68.4307 48.1566 68.2042 47.2019 67.7511 46.5115C67.298 45.821 66.5536 45.4758 65.518 45.4758C64.4824 45.4758 63.7326 45.821 63.2687 46.5115C62.8048 47.2019 62.5729 48.1566 62.5729 49.3756Z" fill="white"/>
<path d="M80.5169 48.1458H77.6204V55.1687H75.2093V48.1458H72.3127V46.3335H80.5169V48.1458Z" fill="white"/>
<path d="M91.4319 55.1687L88.6486 46.1069H88.5839C88.5946 46.3227 88.6108 46.6463 88.6324 47.0778C88.654 47.5093 88.6756 47.9732 88.6971 48.4695C88.7187 48.9549 88.7295 49.3972 88.7295 49.7964V55.1687H86.545V43.6149H89.8784L92.6131 52.4502H92.6617L95.5582 43.6149H98.8917V55.1687H96.61V49.6993C96.61 49.3325 96.6154 48.9118 96.6262 48.4371C96.6478 47.9624 96.664 47.5147 96.6748 47.094C96.6963 46.6625 96.7125 46.3389 96.7233 46.1231H96.6586L93.6811 55.1687H91.4319Z" fill="white"/>
<path d="M105.257 46.1716C106.476 46.1716 107.441 46.5222 108.153 47.2235C108.865 47.9139 109.221 48.901 109.221 50.1847V51.3498H103.525C103.547 52.0295 103.747 52.5635 104.124 52.9518C104.513 53.3402 105.047 53.5344 105.726 53.5344C106.298 53.5344 106.816 53.4804 107.28 53.3725C107.744 53.2539 108.224 53.0759 108.72 52.8385V54.6995C108.288 54.9152 107.83 55.0716 107.344 55.1687C106.87 55.2766 106.293 55.3305 105.613 55.3305C104.728 55.3305 103.946 55.1687 103.267 54.8451C102.587 54.5107 102.053 54.009 101.665 53.3402C101.276 52.6713 101.082 51.8299 101.082 50.8158C101.082 49.7802 101.255 48.9225 101.6 48.2429C101.956 47.5525 102.447 47.0347 103.072 46.6895C103.698 46.3442 104.426 46.1716 105.257 46.1716ZM105.273 47.8869C104.809 47.8869 104.421 48.0379 104.108 48.34C103.806 48.6421 103.628 49.1113 103.574 49.7478H106.956C106.945 49.2084 106.805 48.7661 106.535 48.4209C106.266 48.0649 105.845 47.8869 105.273 47.8869Z" fill="white"/>
<path d="M113.588 46.3335V49.7316H116.953V46.3335H119.365V55.1687H116.953V51.5278H113.588V55.1687H111.177V46.3335H113.588Z" fill="white"/>
<path d="M129.205 48.1458H126.308V55.1687H123.897V48.1458H121.001V46.3335H129.205V48.1458Z" fill="white"/>
<path d="M138.703 50.7349C138.703 52.2021 138.315 53.3348 137.538 54.1331C136.772 54.9314 135.726 55.3305 134.399 55.3305C133.579 55.3305 132.845 55.1525 132.198 54.7965C131.562 54.4405 131.06 53.9227 130.693 53.2431C130.326 52.5527 130.143 51.7166 130.143 50.7349C130.143 49.2678 130.526 48.1404 131.292 47.3529C132.058 46.5654 133.11 46.1716 134.447 46.1716C135.278 46.1716 136.012 46.3496 136.648 46.7056C137.285 47.0616 137.786 47.5795 138.153 48.2591C138.52 48.9279 138.703 49.7532 138.703 50.7349ZM132.603 50.7349C132.603 51.6087 132.743 52.2722 133.023 52.7253C133.315 53.1676 133.784 53.3887 134.431 53.3887C135.068 53.3887 135.526 53.1676 135.807 52.7253C136.098 52.2722 136.243 51.6087 136.243 50.7349C136.243 49.8611 136.098 49.2084 135.807 48.7769C135.526 48.3346 135.062 48.1135 134.415 48.1135C133.778 48.1135 133.315 48.3346 133.023 48.7769C132.743 49.2084 132.603 49.8611 132.603 50.7349Z" fill="white"/>
<path d="M149.786 48.6475C149.786 49.1221 149.635 49.5267 149.333 49.8611C149.042 50.1955 148.605 50.4113 148.023 50.5084V50.5731C148.638 50.6486 149.128 50.859 149.495 51.2042C149.873 51.5494 150.062 51.9917 150.062 52.5311C150.062 53.0381 149.927 53.4912 149.657 53.8904C149.398 54.2895 148.983 54.6024 148.411 54.8289C147.839 55.0555 145.831 55.1687 144.903 55.1687H140.696V46.3335H144.903C145.593 46.3335 147.467 46.409 148.006 46.56C148.557 46.7002 148.988 46.9376 149.301 47.272C149.625 47.6064 149.786 48.0649 149.786 48.6475ZM146.084 48.8416C146.084 48.3022 145.658 48.0325 144.806 48.0325H143.107V49.7802H144.531C145.038 49.7802 145.421 49.7101 145.68 49.5698C145.949 49.4188 146.084 49.1761 146.084 48.8416ZM147.57 52.4016C147.57 52.0564 146.176 51.8083 145.906 51.6573C145.637 51.4955 145.232 51.4145 144.693 51.4145H143.107V53.502H144.741C145.194 53.502 145.566 53.4211 145.858 53.2593C146.16 53.0867 147.57 52.8008 147.57 52.4016Z" fill="white"/>
<path fill-rule="evenodd" clip-rule="evenodd" d="M18.476 18.5506L13.6108 38.4746H33.0123L37.0657 21.8752L41.8388 19.1903L37.1298 38.4746H47V42.4746H36.1531H32.0356H12.6341H8.51653H0V38.4746H9.49328L13.7028 21.2355L18.476 18.5506ZM18.6166 17.9746L18.6276 17.9297H38.0291L38.0181 17.9746H42.1357L42.1466 17.9297H51.0698V13.9297H43.1234L46.2931 0.948865L42.4073 0L39.0058 13.9297H19.6043L22.7741 0.948865L18.8882 0L15.4868 13.9297H4V17.9297H14.5101L14.4991 17.9746H18.6166ZM7.64343 46.0502L12.4166 43.3653L8.66268 58.7383L4.77686 57.7895L7.64343 46.0502ZM35.859 43.6789L31.0859 46.3638L28.2959 57.7895L32.1817 58.7383L35.859 43.6789Z" fill="white"/>
</g>
<defs>
<clipPath id="clip0">
<rect width="150" height="59" fill="white"/>
</clipPath>
</defs>
</svg>
