<svg width="79" height="44" viewBox="0 0 79 44" fill="none" xmlns="http://www.w3.org/2000/svg">
<path d="M4.70203 2.58266C3.88795 2.58266 3.26569 2.8822 2.83525 3.48128C2.40482 4.08036 2.1896 4.90064 2.1896 5.94213C2.1896 6.99282 2.3861 7.8085 2.77911 8.38915C3.18147 8.96058 3.82244 9.24629 4.70203 9.24629C5.11375 9.24629 5.52079 9.20021 5.92315 9.10804C6.33487 9.01588 6.77934 8.88684 7.25656 8.72094V10.4767C6.81677 10.6518 6.38166 10.7809 5.95122 10.8638C5.52079 10.9468 5.03889 10.9882 4.50553 10.9882C3.47623 10.9882 2.62471 10.7809 1.95099 10.3661C1.28662 9.94215 0.795368 9.35228 0.477221 8.59652C0.159074 7.83154 0 6.94213 0 5.9283C0 4.9329 0.182467 4.05271 0.5474 3.28773C0.912334 2.52275 1.44102 1.92367 2.13346 1.49049C2.83525 1.0573 3.69144 0.840712 4.70203 0.840712C5.19796 0.840712 5.6939 0.905229 6.18983 1.03426C6.69513 1.15408 7.17703 1.31998 7.63553 1.53196L6.94777 3.23243C6.57348 3.05732 6.19451 2.90524 5.81087 2.77621C5.43657 2.64717 5.06696 2.58266 4.70203 2.58266Z" fill="white"/>
<path d="M16.1795 3.30156V10.85H14.0881V4.84995H11.309V10.85H9.21764V3.30156H16.1795Z" fill="white"/>
<path d="M21.5179 3.14948C22.5472 3.14948 23.3332 3.37068 23.876 3.81308C24.428 4.24626 24.7041 4.91447 24.7041 5.8177V10.85H23.2443L22.8373 9.82694H22.7812C22.4537 10.2325 22.1074 10.5274 21.7425 10.7117C21.3776 10.8961 20.8769 10.9882 20.2407 10.9882C19.5576 10.9882 18.9915 10.7947 18.5423 10.4076C18.0932 10.0113 17.8686 9.40758 17.8686 8.59652C17.8686 7.79467 18.154 7.20481 18.7248 6.82692C19.2956 6.43982 20.1518 6.22784 21.2933 6.19098L22.6268 6.1495V5.8177C22.6268 5.42139 22.5191 5.13106 22.3039 4.94673C22.0981 4.7624 21.808 4.67023 21.4337 4.67023C21.0594 4.67023 20.6945 4.72553 20.3389 4.83613C19.9833 4.93751 19.6278 5.06654 19.2722 5.22323L18.5844 3.82691C18.9961 3.61492 19.45 3.44902 19.9459 3.32921C20.4512 3.20939 20.9752 3.14948 21.5179 3.14948ZM22.6268 7.35227L21.8127 7.37992C21.139 7.39836 20.6711 7.51817 20.4091 7.73937C20.1471 7.96057 20.0161 8.2509 20.0161 8.61034C20.0161 8.92371 20.1097 9.14952 20.2968 9.28777C20.4839 9.4168 20.7272 9.48132 21.0267 9.48132C21.4758 9.48132 21.8548 9.35228 22.1636 9.09422C22.4724 8.82694 22.6268 8.45366 22.6268 7.9744V7.35227Z" fill="white"/>
<path d="M29.9607 10.9882C28.8192 10.9882 27.9349 10.6795 27.308 10.062C26.6904 9.43523 26.3816 8.45366 26.3816 7.11725C26.3816 6.19558 26.5407 5.44443 26.8588 4.86378C27.177 4.28313 27.6167 3.85456 28.1782 3.57806C28.749 3.30156 29.404 3.16331 30.1432 3.16331C30.6672 3.16331 31.121 3.214 31.5047 3.31538C31.8977 3.41676 32.2392 3.53658 32.5293 3.67483L31.9117 5.2647C31.5842 5.13567 31.2754 5.02968 30.9854 4.94673C30.7046 4.86378 30.4239 4.8223 30.1432 4.8223C29.0578 4.8223 28.515 5.58268 28.515 7.10342C28.515 7.85919 28.6554 8.41679 28.9361 8.77624C29.2262 9.13569 29.6286 9.31542 30.1432 9.31542C30.583 9.31542 30.9713 9.26012 31.3082 9.14952C31.645 9.0297 31.9726 8.86841 32.2907 8.66564V10.4214C31.9726 10.6242 31.6357 10.767 31.2801 10.85C30.9339 10.9422 30.4941 10.9882 29.9607 10.9882Z" fill="white"/>
<path d="M37.2127 3.16331C38.2701 3.16331 39.1075 3.46285 39.7251 4.06193C40.3427 4.6518 40.6515 5.49512 40.6515 6.5919V7.5873H35.7109C35.7296 8.16795 35.9027 8.62417 36.2302 8.95597C36.567 9.28777 37.0302 9.45367 37.6197 9.45367C38.1157 9.45367 38.5648 9.40758 38.9672 9.31542C39.3695 9.21404 39.7859 9.06196 40.2164 8.85919V10.4491C39.8421 10.6334 39.4444 10.767 39.0233 10.85C38.6116 10.9422 38.111 10.9882 37.5215 10.9882C36.7542 10.9882 36.0758 10.85 35.4863 10.5735C34.8968 10.2878 34.4336 9.8592 34.0967 9.28777C33.7599 8.71634 33.5914 7.99744 33.5914 7.13107C33.5914 6.24628 33.7411 5.51355 34.0406 4.9329C34.3494 4.34304 34.7751 3.90064 35.3178 3.60571C35.8606 3.31077 36.4922 3.16331 37.2127 3.16331ZM37.2267 4.62875C36.8244 4.62875 36.4875 4.75779 36.2161 5.01585C35.9541 5.27392 35.7997 5.67484 35.753 6.21863H38.6865C38.6771 5.75779 38.5555 5.37991 38.3215 5.08498C38.0876 4.78083 37.7227 4.62875 37.2267 4.62875ZM34.7564 1.36606C34.7564 1.04348 34.85 0.813062 35.0371 0.674812C35.2243 0.527346 35.4489 0.453613 35.7109 0.453613C35.9729 0.453613 36.1974 0.527346 36.3846 0.674812C36.5811 0.813062 36.6793 1.04348 36.6793 1.36606C36.6793 1.67021 36.5811 1.89602 36.3846 2.04348C36.1974 2.19095 35.9729 2.26468 35.7109 2.26468C35.4489 2.26468 35.2243 2.19095 35.0371 2.04348C34.85 1.89602 34.7564 1.67021 34.7564 1.36606ZM37.5215 1.36606C37.5215 1.04348 37.6151 0.813062 37.8022 0.674812C37.9893 0.527346 38.2186 0.453613 38.49 0.453613C38.752 0.453613 38.9765 0.527346 39.1637 0.674812C39.3602 0.813062 39.4584 1.04348 39.4584 1.36606C39.4584 1.67021 39.3602 1.89602 39.1637 2.04348C38.9765 2.19095 38.752 2.26468 38.49 2.26468C38.2186 2.26468 37.9893 2.19095 37.8022 2.04348C37.6151 1.89602 37.5215 1.67021 37.5215 1.36606Z" fill="white"/>
<path d="M52.004 3.30156V10.85H50.053V7.1449C50.053 6.77623 50.0577 6.41678 50.0671 6.06655C50.0858 5.71632 50.1092 5.39374 50.1372 5.0988H50.0951L47.9757 10.85H46.4037L44.2562 5.08498H44.2001C44.2375 5.38913 44.2609 5.71632 44.2702 6.06655C44.289 6.40757 44.2983 6.78545 44.2983 7.2002V10.85H42.3473V3.30156H45.3089L47.2178 8.41679L49.1547 3.30156H52.004Z" fill="white"/>
<path d="M3.64934 17.2116C4.94064 17.2116 5.88105 17.4881 6.47055 18.0411C7.06942 18.5849 7.36885 19.3361 7.36885 20.2946C7.36885 20.866 7.24721 21.4052 7.00392 21.9121C6.76063 22.4098 6.35359 22.8108 5.78279 23.1149C5.22136 23.4191 4.45406 23.5711 3.48091 23.5711H2.56857V27.0827H0.449149V17.2116H3.64934ZM3.53705 18.9259H2.56857V21.8568H3.27037C3.86923 21.8568 4.34177 21.7416 4.68799 21.5112C5.04357 21.2716 5.22136 20.8891 5.22136 20.3637C5.22136 19.4052 4.65992 18.9259 3.53705 18.9259Z" fill="white"/>
<path d="M7.99948 19.5342H10.2873L11.733 23.7785C11.8079 23.9813 11.864 24.1933 11.9015 24.4145C11.9389 24.6264 11.967 24.8522 11.9857 25.0919H12.0278C12.0559 24.8522 12.0933 24.6264 12.1401 24.4145C12.1962 24.1933 12.257 23.9813 12.3225 23.7785L13.7402 19.5342H15.9859L12.7436 28.0504C12.4535 28.8338 12.0278 29.4191 11.4663 29.8062C10.9143 30.2025 10.2733 30.4007 9.54343 30.4007C9.3095 30.4007 9.10364 30.3868 8.92585 30.3592C8.75742 30.3408 8.6077 30.3177 8.4767 30.2901V28.6587C8.57963 28.6772 8.70128 28.6956 8.84163 28.714C8.99135 28.7325 9.14575 28.7417 9.30482 28.7417C9.74461 28.7417 10.0908 28.608 10.3435 28.3407C10.6055 28.0827 10.7973 27.7693 10.9189 27.4007L11.0453 27.0274L7.99948 19.5342Z" fill="white"/>
<path d="M20.2014 27.2209C19.0598 27.2209 18.1755 26.9122 17.5486 26.2947C16.931 25.6679 16.6222 24.6863 16.6222 23.3499C16.6222 22.4283 16.7813 21.6771 17.0995 21.0965C17.4176 20.5158 17.8574 20.0872 18.4188 19.8107C18.9896 19.5342 19.6446 19.396 20.3839 19.396C20.9079 19.396 21.3617 19.4467 21.7453 19.5481C22.1384 19.6495 22.4799 19.7693 22.77 19.9075L22.1524 21.4974C21.8249 21.3684 21.5161 21.2624 21.226 21.1794C20.9453 21.0965 20.6646 21.055 20.3839 21.055C19.2984 21.055 18.7557 21.8154 18.7557 23.3361C18.7557 24.0919 18.8961 24.6495 19.1768 25.0089C19.4669 25.3684 19.8692 25.5481 20.3839 25.5481C20.8237 25.5481 21.212 25.4928 21.5488 25.3822C21.8857 25.2624 22.2132 25.1011 22.5314 24.8983V26.6541C22.2132 26.8569 21.8764 26.9997 21.5208 27.0827C21.1746 27.1748 20.7348 27.2209 20.2014 27.2209Z" fill="white"/>
<path d="M27.4112 27.2209C26.2697 27.2209 25.3854 26.9122 24.7585 26.2947C24.1409 25.6679 23.8321 24.6863 23.8321 23.3499C23.8321 22.4283 23.9912 21.6771 24.3093 21.0965C24.6275 20.5158 25.0673 20.0872 25.6287 19.8107C26.1995 19.5342 26.8545 19.396 27.5937 19.396C28.1177 19.396 28.5716 19.4467 28.9552 19.5481C29.3482 19.6495 29.6897 19.7693 29.9798 19.9075L29.3622 21.4974C29.0347 21.3684 28.7259 21.2624 28.4359 21.1794C28.1552 21.0965 27.8744 21.055 27.5937 21.055C26.5083 21.055 25.9656 21.8154 25.9656 23.3361C25.9656 24.0919 26.1059 24.6495 26.3866 25.0089C26.6767 25.3684 27.0791 25.5481 27.5937 25.5481C28.0335 25.5481 28.4218 25.4928 28.7587 25.3822C29.0956 25.2624 29.4231 25.1011 29.7412 24.8983V26.6541C29.4231 26.8569 29.0862 26.9997 28.7306 27.0827C28.3844 27.1748 27.9446 27.2209 27.4112 27.2209Z" fill="white"/>
<path d="M36.53 19.5342H38.8319L35.8001 23.1564L39.0986 27.0827H36.7265L33.5965 23.2532V27.0827H31.5051V19.5342H33.5965V23.1979L36.53 19.5342Z" fill="white"/>
<path d="M42.2165 19.5342V22.5204C42.2165 22.6771 42.2071 22.8707 42.1884 23.1011C42.1791 23.3315 42.165 23.5665 42.1463 23.8062C42.137 24.0458 42.1229 24.2578 42.1042 24.4421C42.0855 24.6264 42.0715 24.7555 42.0621 24.8292L45.5992 19.5342H48.1116V27.0827H46.0904V24.0688C46.0904 23.82 46.0998 23.5481 46.1185 23.2532C46.1372 22.949 46.1559 22.6679 46.1746 22.4098C46.2027 22.1426 46.2214 21.9398 46.2308 21.8015L42.7078 27.0827H40.1953V19.5342H42.2165Z" fill="white"/>
<path d="M51.8694 23.2255L49.399 19.5342H51.7711L53.2589 21.9398L54.7608 19.5342H57.1328L54.6344 23.2255L57.2451 27.0827H54.873L53.2589 24.4974L51.6448 27.0827H49.2727L51.8694 23.2255Z" fill="white"/>
<path d="M9.54442 38.366C9.54442 39.3891 9.37131 40.2831 9.02509 41.0481C8.68823 41.8038 8.1689 42.3937 7.4671 42.8177C6.76531 43.2416 5.86701 43.4536 4.77221 43.4536C3.68677 43.4536 2.78847 43.2416 2.07731 42.8177C1.37552 42.3937 0.851512 41.7992 0.505293 41.0342C0.168431 40.2693 0 39.3752 0 38.3522C0 37.3292 0.168431 36.4397 0.505293 35.684C0.851512 34.9282 1.37552 34.343 2.07731 33.9282C2.78847 33.5042 3.69144 33.2923 4.78624 33.2923C5.87169 33.2923 6.76531 33.5042 7.4671 33.9282C8.1689 34.343 8.68823 34.9328 9.02509 35.6978C9.37131 36.4536 9.54442 37.343 9.54442 38.366ZM2.23171 38.366C2.23171 39.3983 2.43289 40.214 2.83525 40.813C3.23762 41.4029 3.88327 41.6978 4.77221 41.6978C5.67986 41.6978 6.33019 41.4029 6.7232 40.813C7.11621 40.214 7.31271 39.3983 7.31271 38.366C7.31271 37.3245 7.11621 36.5089 6.7232 35.919C6.33019 35.3291 5.68454 35.0342 4.78624 35.0342C3.88795 35.0342 3.23762 35.3291 2.83525 35.919C2.43289 36.5089 2.23171 37.3245 2.23171 38.366Z" fill="white"/>
<path d="M17.7961 37.3153H15.2837V43.3154H13.1923V37.3153H10.6799V35.7669H17.7961V37.3153Z" fill="white"/>
<path d="M29.2371 43.3154L26.8229 35.5734H26.7668C26.7762 35.7577 26.7902 36.0342 26.8089 36.4029C26.8276 36.7715 26.8463 37.1679 26.8651 37.5918C26.8838 38.0066 26.8931 38.3845 26.8931 38.7255V43.3154H24.9983V33.4443H27.8897L30.2617 40.9928H30.3039L32.8163 33.4443H35.7077V43.3154H33.7286V38.6425C33.7286 38.3292 33.7333 37.9697 33.7426 37.5642C33.7614 37.1586 33.7754 36.7762 33.7848 36.4167C33.8035 36.048 33.8175 35.7715 33.8269 35.5872H33.7707L31.1881 43.3154H29.2371Z" fill="white"/>
<path d="M41.2288 35.6287C42.2862 35.6287 43.1237 35.9282 43.7413 36.5273C44.3588 37.1172 44.6676 37.9605 44.6676 39.0573V40.0527H39.727C39.7457 40.6333 39.9188 41.0895 40.2463 41.4213C40.5832 41.7531 41.0464 41.919 41.6359 41.919C42.1318 41.919 42.581 41.873 42.9833 41.7808C43.3857 41.6794 43.8021 41.5273 44.2325 41.3246V42.9144C43.8582 43.0988 43.4605 43.2324 43.0395 43.3154C42.6277 43.4075 42.1271 43.4536 41.5376 43.4536C40.7703 43.4536 40.0919 43.3154 39.5024 43.0389C38.9129 42.7531 38.4497 42.3246 38.1129 41.7531C37.776 41.1817 37.6076 40.4628 37.6076 39.5964C37.6076 38.7116 37.7573 37.9789 38.0567 37.3983C38.3655 36.8084 38.7913 36.366 39.334 36.0711C39.8767 35.7761 40.5083 35.6287 41.2288 35.6287ZM41.2429 37.0941C40.8405 37.0941 40.5036 37.2232 40.2323 37.4812C39.9703 37.7393 39.8159 38.1402 39.7691 38.684H42.7026C42.6932 38.2232 42.5716 37.8453 42.3377 37.5504C42.1037 37.2462 41.7388 37.0941 41.2429 37.0941Z" fill="white"/>
<path d="M48.4548 35.7669V38.6702H51.3743V35.7669H53.4656V43.3154H51.3743V40.2047H48.4548V43.3154H46.3634V35.7669H48.4548Z" fill="white"/>
<path d="M62.001 37.3153H59.4886V43.3154H57.3972V37.3153H54.8848V35.7669H62.001V37.3153Z" fill="white"/>
<path d="M70.2396 39.5273C70.2396 40.7808 69.9028 41.7485 69.229 42.4306C68.5647 43.1126 67.657 43.4536 66.5061 43.4536C65.7949 43.4536 65.1586 43.3015 64.5972 42.9974C64.0451 42.6932 63.61 42.2508 63.2918 41.6702C62.9737 41.0803 62.8146 40.366 62.8146 39.5273C62.8146 38.2739 63.1468 37.3107 63.8112 36.6379C64.4755 35.9651 65.3879 35.6287 66.5482 35.6287C67.2687 35.6287 67.905 35.7808 68.4571 36.0849C69.0091 36.3891 69.4443 36.8315 69.7624 37.4121C70.0805 37.9835 70.2396 38.6886 70.2396 39.5273ZM64.9481 39.5273C64.9481 40.2739 65.0697 40.8407 65.313 41.2278C65.5657 41.6057 65.9727 41.7946 66.5341 41.7946C67.0862 41.7946 67.4839 41.6057 67.7272 41.2278C67.9798 40.8407 68.1062 40.2739 68.1062 39.5273C68.1062 38.7808 67.9798 38.2232 67.7272 37.8545C67.4839 37.4766 67.0815 37.2877 66.5201 37.2877C65.968 37.2877 65.5657 37.4766 65.313 37.8545C65.0697 38.2232 64.9481 38.7808 64.9481 39.5273Z" fill="white"/>
<path d="M78.7614 37.7439C78.7614 38.1494 78.6304 38.4951 78.3684 38.7808C78.1157 39.0665 77.7368 39.2508 77.2315 39.3338V39.3891C77.7648 39.4536 78.1906 39.6333 78.5087 39.9282C78.8362 40.2232 79 40.6011 79 41.0619C79 41.4951 78.883 41.8822 78.6491 42.2232C78.4245 42.5642 78.0643 42.8315 77.5683 43.025C77.0724 43.2186 76.4221 43.3154 75.6173 43.3154H71.968V35.7669H75.6173C76.2162 35.7669 76.7496 35.8314 77.2174 35.9605C77.6947 36.0803 78.0689 36.2831 78.3403 36.5688C78.621 36.8545 78.7614 37.2462 78.7614 37.7439ZM76.642 37.9098C76.642 37.449 76.2724 37.2186 75.5331 37.2186H74.0594V38.7116H75.2945C75.7343 38.7116 76.0665 38.6517 76.2911 38.5319C76.525 38.4029 76.642 38.1955 76.642 37.9098ZM76.8385 40.9513C76.8385 40.6564 76.7215 40.4444 76.4876 40.3153C76.2536 40.1771 75.9027 40.108 75.4349 40.108H74.0594V41.8914H75.477C75.87 41.8914 76.1928 41.8223 76.4455 41.684C76.7075 41.5366 76.8385 41.2923 76.8385 40.9513Z" fill="white"/>
</svg>
