<svg width="43" height="32" viewBox="0 0 43 32" fill="none" xmlns="http://www.w3.org/2000/svg">
<path opacity="0.2" d="M16.1462 12.0142C16.1462 17.7841 14.7677 22.3013 12.0105 25.5658C9.21563 28.8304 5.30654 30.9751 0.283268 32L0.283268 26.0783C4.09794 24.9015 6.66623 22.7758 7.98814 19.7011C8.74352 18.0688 9.04567 16.4935 8.8946 14.9751L1.48836e-06 14.9751L2.79753e-06 -3.75918e-06L16.1462 -2.34763e-06L16.1462 12.0142ZM43 12.0142C43 17.7082 41.6592 22.2064 38.9776 25.5089C36.2582 28.8114 32.3114 30.9751 27.137 32L27.137 26.0783C30.9895 24.8636 33.5766 22.7758 34.8986 19.8149C35.5784 18.2586 35.8617 16.6453 35.7484 14.9751L26.8538 14.9751L26.8538 -1.41155e-06L43 0L43 12.0142Z" fill="white"/>
</svg>
