<svg width="35" height="26" viewBox="0 0 35 26" fill="none" xmlns="http://www.w3.org/2000/svg">
<path opacity="0.2" d="M21.8577 16.2384C21.8577 11.5504 22.9798 7.88019 25.224 5.22776C27.4989 2.57533 30.6807 0.83274 34.7694 0V4.81139C31.6645 5.7675 29.574 7.49466 28.498 9.99288C27.8832 11.3191 27.6372 12.5991 27.7602 13.8327H35V26H21.8577V16.2384ZM0 16.2384C0 11.6121 1.09135 7.9573 3.27404 5.27402C5.48748 2.59075 8.70004 0.83274 12.9117 0V4.81139C9.77602 5.79834 7.67018 7.49466 6.5942 9.90036C6.04084 11.1649 5.81028 12.4757 5.9025 13.8327H13.1423V26H0V16.2384Z" fill="white"/>
</svg>
