<svg width="14" height="14" viewBox="0 0 14 14" fill="none" xmlns="http://www.w3.org/2000/svg">
<path opacity="0.3" fill-rule="evenodd" clip-rule="evenodd" d="M8.36515 8.5651C6.75067 10.1796 4.13307 10.1796 2.51858 8.5651C0.904097 6.95062 0.904097 4.33302 2.51858 2.71853C4.13307 1.10405 6.75067 1.10405 8.36515 2.71853C9.97964 4.33302 9.97964 6.95062 8.36515 8.5651ZM8.80003 9.92464C6.66446 11.6035 3.5626 11.4585 1.59389 9.4898C-0.531295 7.36462 -0.531295 3.91902 1.59389 1.79384C3.71907 -0.331344 7.16467 -0.331344 9.28985 1.79384C11.2586 3.76254 11.4035 6.86438 9.72472 8.99994L13.6002 12.8754L12.6755 13.8001L8.80003 9.92464Z" fill="white"/>
</svg>
