<svg width="98" height="93" viewBox="0 0 98 93" fill="none" xmlns="http://www.w3.org/2000/svg">
<path opacity="0.25" d="M34.8378 52.4536C34.8378 45.2739 39.7143 39.4536 45.7297 39.4536H53.2703C59.2857 39.4536 64.1622 45.2739 64.1622 52.4536L65 58.9536L64.1622 65.4536C62.4865 65.9536 59.2857 78.4536 53.2703 78.4536H45.7297C39.7143 78.4536 37.7703 69.9536 34.8378 65.4536L34 60.4536L34.8378 52.4536Z" fill="white"/>
<rect x="19.0635" y="46.4941" width="42" height="23" transform="rotate(-30 19.0635 46.4941)" fill="#1B1B1B"/>
<path fill-rule="evenodd" clip-rule="evenodd" d="M37.4011 52.989C36.7565 53.3217 35.9155 53.6471 35 53.3141L35.5317 52.3781C35.7941 52.4735 36.1043 52.4348 36.7045 52.125C36.9255 52.011 37.1496 51.88 37.4009 51.733C37.4817 51.6858 37.5652 51.6369 37.6524 51.5864C37.9994 51.3856 38.3866 51.1696 38.8105 50.9826C39.6676 50.6042 40.7024 50.3318 41.9441 50.5089C43.1702 50.6839 44.5011 51.2835 46 52.4825L45.0915 53.2096C43.6991 52.0958 42.5939 51.646 41.7186 51.5211C40.8588 51.3985 40.1267 51.5758 39.4312 51.8828C39.0786 52.0384 38.7431 52.2241 38.4057 52.4194C38.3318 52.4622 38.2568 52.5061 38.1811 52.5503C37.9228 52.7014 37.6566 52.8572 37.4011 52.989Z" fill="white"/>
<path fill-rule="evenodd" clip-rule="evenodd" d="M55.4011 52.989C54.7565 53.3217 53.9155 53.6471 53 53.3141L53.5317 52.3781C53.7941 52.4735 54.1043 52.4348 54.7045 52.125C54.9255 52.011 55.1496 51.88 55.4009 51.733C55.4817 51.6858 55.5652 51.6369 55.6524 51.5864C55.9994 51.3856 56.3866 51.1696 56.8105 50.9826C57.6676 50.6042 58.7024 50.3318 59.9441 50.5089C61.1702 50.6839 62.5011 51.2835 64 52.4825L63.0915 53.2096C61.6991 52.0958 60.5939 51.646 59.7186 51.5211C58.8588 51.3985 58.1267 51.5758 57.4312 51.8828C57.0786 52.0384 56.7431 52.2241 56.4057 52.4194C56.3318 52.4622 56.2568 52.5061 56.1811 52.5503C55.9228 52.7014 55.6566 52.8572 55.4011 52.989Z" fill="white"/>
<path fill-rule="evenodd" clip-rule="evenodd" d="M40.9634 60.7537C44.144 60.7537 46.7225 57.4628 46.7225 57.4628C46.7225 57.4628 44.144 54.1719 40.9634 54.1719C37.7827 54.1719 35.2042 57.4628 35.2042 57.4628C35.2042 57.4628 37.7827 60.7537 40.9634 60.7537ZM40.9635 59.1078C41.8722 59.1078 42.6089 58.3711 42.6089 57.4624C42.6089 56.5536 41.8722 55.8169 40.9635 55.8169C40.0547 55.8169 39.318 56.5536 39.318 57.4624C39.318 58.3711 40.0547 59.1078 40.9635 59.1078Z" fill="white"/>
<path fill-rule="evenodd" clip-rule="evenodd" d="M58.2408 60.7537C61.4215 60.7537 64 57.4628 64 57.4628C64 57.4628 61.4215 54.1719 58.2408 54.1719C55.0601 54.1719 52.4817 57.4628 52.4817 57.4628C52.4817 57.4628 55.0601 60.7537 58.2408 60.7537ZM58.2409 59.1078C59.1497 59.1078 59.8864 58.3711 59.8864 57.4624C59.8864 56.5536 59.1497 55.8169 58.2409 55.8169C57.3322 55.8169 56.5955 56.5536 56.5955 57.4624C56.5955 58.3711 57.3322 59.1078 58.2409 59.1078Z" fill="white"/>
<path fill-rule="evenodd" clip-rule="evenodd" d="M44.2175 1.80353L17.3955 111.646L10.0096 109.842L36.8316 0L44.2175 1.80353Z" fill="white"/>
<path fill-rule="evenodd" clip-rule="evenodd" d="M88.9207 1.80353L62.0988 111.646L54.7129 109.842L81.5348 0L88.9207 1.80353Z" fill="white"/>
<path fill-rule="evenodd" clip-rule="evenodd" d="M97.9999 34.0794H8.53308V26.4765H97.9999V34.0794Z" fill="white"/>
<path fill-rule="evenodd" clip-rule="evenodd" d="M90.2644 80.7327H0.930176V73.1298H90.2644V80.7327Z" fill="white"/>
<path d="M26.59 34.1649H37.9944L22.7886 42.7182L26.59 34.1649Z" fill="#1B1B1B"/>
<path d="M73.1578 34.1649H84.5622L69.3563 42.7182L73.1578 34.1649Z" fill="#1B1B1B"/>
<path d="M61.7535 80.7328H73.1579L57.952 89.2861L61.7535 80.7328Z" fill="#1B1B1B"/>
<path d="M16.1361 80.7328H27.5404L12.3346 89.2861L16.1361 80.7328Z" fill="#1B1B1B"/>
</svg>
